<?xml version="1.0" ?><!DOCTYPE svg  PUBLIC '-//W3C//DTD SVG 1.1//EN'  'http://www.w3.org/Graphics/SVG/1.1/DTD/svg11.dtd'><svg height="64px" style="shape-rendering:geometricPrecision; text-rendering:geometricPrecision; image-rendering:optimizeQuality; fill-rule:evenodd; clip-rule:evenodd" version="1.1" viewBox="0 0 64 64" width="64px" xml:space="preserve" xmlns="http://www.w3.org/2000/svg" xmlns:xlink="http://www.w3.org/1999/xlink"><defs><style type="text/css">
   <![CDATA[
    .fil2 {fill:none}
    .fil1 {fill:#1AB5ED}
    .fil0 {fill:#FFC106}
   ]]>
  </style></defs><g id="Layer_x0020_1"><g id="_743751264"><path class="fil0" d="M43.33 14.99c2.39,-0.83 4.86,-0.82 7.09,-0.13 -4.63,1.77 -7.05,6.92 -5.41,11.64 1.64,4.72 6.73,7.26 11.46,5.77 -1.33,1.93 -3.26,3.47 -5.64,4.29 -0.51,0.18 -1.03,0.32 -1.55,0.42 -1.42,-3.04 -4.5,-5.15 -8.08,-5.15 -0.55,0 -1.08,0.05 -1.6,0.14 -0.81,-2.14 -2.18,-4.02 -3.92,-5.45 -0.32,-5 2.69,-9.81 7.65,-11.53z"/><path class="fil1" d="M14.59 49.65l-0.1 0c-3.84,0 -6.96,-3.12 -6.96,-6.97 0,-3.81 3.05,-6.9 6.84,-6.97 0.45,-6.79 6.11,-12.17 13.02,-12.17 5.58,0 10.34,3.51 12.21,8.43 0.52,-0.09 1.05,-0.14 1.6,-0.14 4.53,0 8.27,3.38 8.84,7.75 2.77,0.01 5.02,2.26 5.02,5.03 0,2.74 -2.18,4.97 -4.9,5.04l-0.13 0 -0.07 0 -8.67 0 -0.09 0 -0.11 0 -13.57 0 -0.13 0 -0.13 0 -12.67 0z"/><path class="fil2" d="M14.37 35.68c0.48,-6.84 6.17,-12.14 13.02,-12.14 7.21,0 13.05,5.85 13.05,13.05 0,1.32 -0.2,2.63 -0.59,3.89"/></g></g></svg>